# Blender 3.6.2
# www.blender.org
mtllib pink_crystal.mtl
o Cylinder.004
v 0.000000 -2.586993 0.000000
v 0.000000 2.356659 -0.000000
v 0.000000 -1.733790 -0.725045
v 0.000000 1.715881 -1.000000
v 0.689559 -1.733790 -0.224051
v 0.951056 1.715881 -0.309017
v 0.426170 -1.733790 0.586573
v 0.587785 1.715881 0.809017
v -0.426170 -1.733790 0.586573
v -0.587785 1.715881 0.809017
v -0.689559 -1.733790 -0.224051
v -0.951056 1.715881 -0.309017
vn 0.4844 -0.5665 -0.6667
vn 0.3649 0.7839 -0.5023
vn 0.5866 -0.0643 -0.8073
vn 0.7837 -0.5665 0.2546
vn 0.5905 0.7839 0.1919
vn 0.9491 -0.0643 0.3084
vn -0.0000 -0.5665 0.8240
vn -0.0000 0.7839 0.6209
vn -0.0000 -0.0643 0.9979
vn -0.7837 -0.5665 0.2546
vn -0.5905 0.7839 0.1919
vn -0.9491 -0.0643 0.3084
vn -0.4844 -0.5665 -0.6667
vn -0.3649 0.7839 -0.5023
vn -0.5866 -0.0643 -0.8073
vt 0.280345 0.005407
vt 0.353490 0.164139
vt 0.216290 0.168021
vt 0.752708 0.493171
vt 0.872954 0.344443
vt 0.907896 0.493171
vt 0.394680 0.699843
vt 0.205450 0.705195
vt 0.119741 0.705196
vt 0.005407 0.590357
vt 0.046596 0.546463
vt 0.686132 0.313876
vt 0.898429 0.027569
vt 0.762975 0.005407
vt 0.183796 0.542582
vt 0.605612 0.443711
vt 0.005407 0.010760
vt 0.194636 0.005407
vt 0.500146 0.702798
vt 0.431519 0.542060
vt 0.568774 0.542060
vt 0.760768 0.507139
vt 0.637523 0.653391
vt 0.605612 0.503984
vt 0.405493 0.005407
vt 0.594799 0.005407
vt 0.394680 0.120245
vt 0.823685 0.687750
vt 0.605612 0.969682
vt 0.740588 0.994594
s 0
usemtl CrystalMat
f 1/1/1 3/2/1 5/3/1
f 2/4/2 6/5/2 4/6/2
f 3/2/3 4/7/3 6/8/3 5/3/3
f 1/9/4 5/10/4 7/11/4
f 2/4/5 8/12/5 6/5/5
f 5/13/6 6/5/6 8/12/6 7/14/6
f 1/9/7 7/11/7 9/15/7
f 2/4/8 10/16/8 8/12/8
f 7/11/9 8/17/9 10/18/9 9/15/9
f 1/19/10 9/20/10 11/21/10
f 2/22/11 12/23/11 10/24/11
f 9/20/12 10/25/12 12/26/12 11/21/12
f 1/1/13 11/27/13 3/2/13
f 2/22/14 4/28/14 12/23/14
f 11/29/15 12/23/15 4/28/15 3/30/15
